<svg width="289" height="289" viewBox="0 0 289 289" fill="none" xmlns="http://www.w3.org/2000/svg">
<g filter="url(#filter0_d_31_2)">
<rect x="58.9656" y="54.2483" width="171" height="171" rx="35.3793" fill="white" fill-opacity="0.1" shape-rendering="crispEdges"/>
<rect x="59.5552" y="54.8379" width="169.821" height="169.821" rx="34.7897" stroke="#1FCFF1" stroke-width="1.17931" shape-rendering="crispEdges"/>
</g>
<path d="M150.291 124.894L160.503 135.105L106.167 189.411C105.499 190.086 104.703 190.621 103.827 190.986C102.951 191.351 102.011 191.539 101.061 191.539C100.112 191.539 99.1721 191.351 98.2958 190.986C97.4195 190.621 96.6242 190.086 95.956 189.411C94.6072 188.06 93.8496 186.229 93.8496 184.32C93.8496 182.411 94.6072 180.58 95.956 179.229L150.291 124.894ZM183.18 109.416C183.181 108.47 182.996 107.533 182.634 106.659C182.272 105.786 181.742 104.992 181.072 104.324C180.074 103.324 178.804 102.64 177.419 102.359C176.034 102.078 174.598 102.212 173.289 102.744L182.652 112.107C183.004 111.23 183.18 110.323 183.18 109.416ZM110.235 95.6347C110.263 95.6347 110.292 95.6347 110.323 95.6635C113.131 96.7164 115.882 97.7405 118.544 98.9119C123.87 101.194 128.962 103.652 133.7 106.46C138.441 109.299 143.005 112.166 147.218 115.53C147.833 115.97 148.447 116.437 149.033 116.877C149.326 116.263 149.736 115.706 150.233 115.208L163.019 102.423C161.507 101.33 159.934 100.323 158.308 99.4079C152.661 95.9563 146.458 93.4392 140.138 91.655C133.817 89.8403 127.233 89.0786 120.679 89.1378C117.431 89.197 114.155 89.4899 110.937 90.0163C110.907 90.0451 110.849 90.0451 110.819 90.0451C107.893 90.6004 107.484 94.6697 110.235 95.6347ZM193.743 145.23C191.957 138.939 189.441 132.735 185.988 127.088C185.087 125.454 184.08 123.881 182.975 122.377L170.188 135.163C169.692 135.662 169.135 136.072 168.52 136.393C168.988 136.977 169.428 137.563 169.864 138.178C173.231 142.362 176.099 146.956 178.938 151.696C181.746 156.436 184.202 161.528 186.486 166.853C187.655 169.516 188.68 172.265 189.734 175.075C189.763 175.104 189.763 175.133 189.763 175.163C190.728 177.912 194.796 177.503 195.351 174.577C195.351 174.549 195.351 174.489 195.381 174.461C195.908 171.241 196.199 167.964 196.258 164.687C196.317 158.163 195.556 151.581 193.743 145.23ZM181.064 114.655L170.738 104.333C169.218 102.813 166.754 102.813 165.233 104.333L152.294 117.271C150.774 118.791 150.774 121.257 152.294 122.777L162.617 133.102C164.137 134.622 166.602 134.622 168.123 133.102L181.063 120.163C182.583 118.642 182.583 116.178 181.063 114.658L181.064 114.655Z" fill="#1FCFF1"/>
<defs>
<filter id="filter0_d_31_2" x="6.10352e-05" y="1.71661e-05" width="288.931" height="288.931" filterUnits="userSpaceOnUse" color-interpolation-filters="sRGB">
<feFlood flood-opacity="0" result="BackgroundImageFix"/>
<feColorMatrix in="SourceAlpha" type="matrix" values="0 0 0 0 0 0 0 0 0 0 0 0 0 0 0 0 0 0 127 0" result="hardAlpha"/>
<feOffset dy="4.71724"/>
<feGaussianBlur stdDeviation="29.4828"/>
<feComposite in2="hardAlpha" operator="out"/>
<feColorMatrix type="matrix" values="0 0 0 0 0.121569 0 0 0 0 0.811765 0 0 0 0 0.945098 0 0 0 0.15 0"/>
<feBlend mode="normal" in2="BackgroundImageFix" result="effect1_dropShadow_31_2"/>
<feBlend mode="normal" in="SourceGraphic" in2="effect1_dropShadow_31_2" result="shape"/>
</filter>
</defs>
</svg>
