<svg width="42" height="42" viewBox="0 0 42 42" fill="none" xmlns="http://www.w3.org/2000/svg">
<rect x="0.5" y="0.5" width="41" height="41" rx="9.5" stroke="#1FCFF1"/>
<path d="M29.6155 19.6253C29.5354 19.6123 29.4543 19.6062 29.3731 19.6073H15.5558L15.8571 19.4672C16.1516 19.3278 16.4195 19.1381 16.6489 18.9066L20.5236 15.0319C21.0339 14.5448 21.1196 13.7611 20.7268 13.1751C20.2695 12.5507 19.3927 12.4151 18.7682 12.8723C18.7178 12.9093 18.6698 12.9496 18.6248 12.9929L11.618 19.9997C11.0705 20.5466 11.07 21.4339 11.6169 21.9815L11.618 21.9826L18.6248 28.9893C19.1728 29.5358 20.06 29.5346 20.6066 28.9866C20.6496 28.9434 20.6897 28.8975 20.7268 28.8492C21.1196 28.2632 21.0339 27.4795 20.5236 26.9924L16.6559 23.1107C16.4503 22.9048 16.2139 22.7323 15.9552 22.5992L15.5348 22.41H29.296C30.0119 22.4366 30.6399 21.9365 30.7744 21.2329C30.8983 20.4689 30.3795 19.7492 29.6155 19.6253Z" fill="#1FCFF1"/>
</svg>
