<svg width="100" height="100" viewBox="0 0 100 100" fill="none" xmlns="http://www.w3.org/2000/svg">
<circle cx="50" cy="50" r="50" fill="url(#paint0_linear_31_289)"/>
<g clip-path="url(#clip0_31_289)">
<path d="M74.0768 26.3473C74.0334 26.1517 73.8812 25.9996 73.6965 25.9453C67.3297 24.3916 52.6294 29.9327 44.6654 37.8967C43.2421 39.3091 41.9492 40.8411 40.7975 42.4708C38.342 42.2535 35.8866 42.4382 33.7896 43.3509C27.8791 45.9476 26.1624 52.7382 25.6735 55.65C25.5757 56.215 25.956 56.7582 26.5319 56.856C26.6296 56.8669 26.7274 56.8777 26.8252 56.8669L36.3103 55.8238C36.3212 56.5409 36.3646 57.258 36.4407 57.9642C36.4841 58.4532 36.7123 58.9203 37.06 59.268L40.7323 62.9295C41.08 63.2772 41.5472 63.5054 42.0361 63.5488C42.7423 63.6249 43.4486 63.6683 44.1656 63.6792L43.1226 73.1534C43.0574 73.7293 43.4812 74.2508 44.057 74.3051C44.1548 74.316 44.2526 74.316 44.3395 74.2942C47.2513 73.827 54.0527 72.1104 56.6386 66.1999C57.5512 64.1029 57.7359 61.6583 57.5295 59.2137C59.1701 58.062 60.7021 56.7582 62.1145 55.3458C70.1002 47.4035 75.6088 33.0292 74.0768 26.3473ZM61.5061 45.8607C59.4743 47.8924 56.1714 47.9033 54.1397 45.8607C52.097 43.8289 52.097 40.526 54.1397 38.4834C56.1714 36.4408 59.4743 36.4408 61.5169 38.4834C63.5487 40.526 63.5487 43.8289 61.5061 45.8607Z" fill="white"/>
<path d="M40.4827 65.5806C39.8852 66.1782 38.9291 66.4063 37.7774 66.6128C35.1915 67.0474 32.9099 64.82 33.3771 62.2125C33.5509 61.2238 34.0833 59.833 34.4093 59.5071C34.594 59.3224 34.6048 59.0182 34.4201 58.8335C34.3115 58.7248 34.1702 58.6705 34.0181 58.6922C32.5731 58.8661 31.2258 59.5288 30.2045 60.5501C27.6404 63.1143 27.4014 72.5993 27.4014 72.5993C27.4014 72.5993 36.8973 72.3603 39.4506 69.7962C40.4827 68.764 41.1346 67.4276 41.3085 65.9717C41.3519 65.5263 40.7978 65.2546 40.4827 65.5806Z" fill="white"/>
</g>
<defs>
<linearGradient id="paint0_linear_31_289" x1="50" y1="0" x2="50" y2="100" gradientUnits="userSpaceOnUse">
<stop stop-color="#19FB9B"/>
<stop offset="1" stop-color="#08726B"/>
</linearGradient>
<clipPath id="clip0_31_289">
<rect width="50" height="50" fill="white" transform="translate(25 25)"/>
</clipPath>
</defs>
</svg>
