<svg width="40" height="40" viewBox="0 0 40 40" fill="none" xmlns="http://www.w3.org/2000/svg">
<rect x="0.5" y="0.5" width="39" height="39" rx="9.5" fill="white" fill-opacity="0.1" stroke="#1FCFF1"/>
<path d="M18.5686 12.3438C17.6559 12.3438 16.7807 12.7063 16.1353 13.3516C15.49 13.997 15.1275 14.8722 15.1275 15.7849C15.1275 16.6975 15.49 17.5727 16.1353 18.2181C16.7807 18.8634 17.6559 19.226 18.5686 19.226C19.4812 19.226 20.3565 18.8634 21.0018 18.2181C21.6471 17.5727 22.0097 16.6975 22.0097 15.7849C22.0097 14.8722 21.6471 13.997 21.0018 13.3516C20.3565 12.7063 19.4812 12.3438 18.5686 12.3438ZM18.9146 20.9011C19.1076 20.6209 18.9238 20.1952 18.5831 20.196H18.2692L17.6605 20.1968C16.3025 20.1968 15.0001 20.7362 14.0398 21.6965C13.0795 22.6568 12.54 23.9592 12.54 25.3173C12.54 25.8716 12.7603 26.4032 13.1522 26.7952C13.5442 27.1872 14.0759 27.4074 14.6302 27.4074H18.6275C18.9721 27.4074 19.1581 26.9679 18.9583 26.687C18.349 25.8336 18.0224 24.8108 18.0242 23.7623C18.0242 22.6996 18.3534 21.7142 18.9146 20.9011Z" fill="#1FCFF1"/>
<path fill-rule="evenodd" clip-rule="evenodd" d="M26.9593 23.7631C26.9593 24.2743 26.8586 24.7806 26.6629 25.2529C26.4673 25.7253 26.1805 26.1545 25.819 26.516C25.4574 26.8775 25.0283 27.1643 24.5559 27.3599C24.0836 27.5556 23.5773 27.6563 23.0661 27.6563C22.5548 27.6563 22.0485 27.5556 21.5762 27.3599C21.1038 27.1643 20.6747 26.8775 20.3131 26.516C19.9516 26.1545 19.6649 25.7253 19.4692 25.2529C19.2736 24.7806 19.1729 24.2743 19.1729 23.7631C19.1729 22.7305 19.583 21.7403 20.3131 21.0102C21.0433 20.28 22.0335 19.8699 23.0661 19.8699C24.0986 19.8699 25.0888 20.28 25.819 21.0102C26.5491 21.7403 26.9593 22.7305 26.9593 23.7631ZM24.8722 21.9562C24.9256 22.0095 24.9681 22.0729 24.997 22.1427C25.026 22.2124 25.0409 22.2872 25.0409 22.3627C25.0409 22.4383 25.026 22.5131 24.997 22.5828C24.9681 22.6526 24.9256 22.716 24.8722 22.7693L24.1486 23.492C24.113 23.5276 24.0847 23.5698 24.0654 23.6164C24.0461 23.6629 24.0362 23.7127 24.0362 23.7631C24.0362 23.8134 24.0461 23.8633 24.0654 23.9098C24.0847 23.9563 24.113 23.9985 24.1486 24.0341L24.8722 24.7576C24.9736 24.8665 25.0288 25.0104 25.0262 25.1592C25.0236 25.308 24.9633 25.4499 24.8581 25.5551C24.7529 25.6603 24.6109 25.7206 24.4622 25.7232C24.3134 25.7258 24.1695 25.6706 24.0606 25.5692L23.3371 24.8457C23.2653 24.7739 23.1679 24.7336 23.0664 24.7336C22.9649 24.7336 22.8676 24.7739 22.7958 24.8457L22.0723 25.5692C21.9634 25.6706 21.8194 25.7258 21.6707 25.7232C21.5219 25.7206 21.38 25.6603 21.2748 25.5551C21.1696 25.4499 21.1093 25.308 21.1067 25.1592C21.1041 25.0104 21.1593 24.8665 21.2607 24.7576L21.9835 24.0341C22.0552 23.9623 22.0955 23.865 22.0955 23.7635C22.0955 23.662 22.0552 23.5646 21.9835 23.4928L21.2599 22.7693C21.1553 22.661 21.0973 22.516 21.0986 22.3655C21.0998 22.2149 21.1601 22.0709 21.2666 21.9643C21.373 21.8578 21.517 21.7974 21.6675 21.796C21.8181 21.7946 21.9632 21.8524 22.0715 21.957L22.7958 22.6805C22.8676 22.7522 22.9649 22.7926 23.0664 22.7926C23.1679 22.7926 23.2653 22.7522 23.3371 22.6805L24.0606 21.957C24.1683 21.8494 24.3142 21.789 24.4664 21.789C24.6186 21.789 24.7645 21.8487 24.8722 21.9562Z" fill="#1FCFF1"/>
</svg>
