<svg width="44" height="44" viewBox="0 0 44 44" fill="none" xmlns="http://www.w3.org/2000/svg">
<g clip-path="url(#clip0_16_620)">
<path d="M37.5571 5.16278H38.8457V6.45134C38.8457 7.16357 39.422 7.7399 40.1342 7.7399C40.8465 7.7399 41.4228 7.16357 41.4228 6.45134V5.16278H42.7114C43.4236 5.16278 43.9999 4.58645 43.9999 3.87422C43.9999 3.16199 43.4236 2.58566 42.7114 2.58566H41.4228V1.2971C41.4228 0.584874 40.8465 0.00854492 40.1342 0.00854492C39.422 0.00854492 38.8457 0.584874 38.8457 1.2971V2.58566H37.5571C36.8449 2.58566 36.2686 3.16199 36.2686 3.87422C36.2686 4.58645 36.8449 5.16278 37.5571 5.16278ZM42.7114 25.9515H41.4228V24.663C41.4228 23.9507 40.8465 23.3744 40.1342 23.3744C39.422 23.3744 38.8457 23.9507 38.8457 24.663V25.9515H37.5571C36.8449 25.9515 36.2686 26.5279 36.2686 27.2401C36.2686 27.9523 36.8449 28.5287 37.5571 28.5287H38.8457V29.8172C38.8457 30.5294 39.422 31.1058 40.1342 31.1058C40.8465 31.1058 41.4228 30.5294 41.4228 29.8172V28.5287H42.7114C43.4236 28.5287 43.9999 27.9523 43.9999 27.2401C43.9999 26.5279 43.4236 25.9515 42.7114 25.9515Z" fill="white"/>
<path d="M42.7693 33.0161C42.0495 32.9947 41.4455 33.5093 41.4001 34.2191C41.2987 35.7925 40.6893 37.2412 39.7339 38.4457C39.1063 37.1573 37.7956 36.26 36.2686 36.26H31.1143C29.5925 36.26 28.2862 37.1515 27.6559 38.4327C26.5909 37.0918 25.9601 35.4358 25.9601 33.6829C25.9601 29.6259 29.1211 26.2397 33.1566 25.9743C33.8675 25.9277 34.4049 25.3137 34.3583 24.6039C34.3105 23.8917 33.6662 23.3619 32.988 23.4022C29.8619 23.6089 27.1601 25.2415 25.4169 27.612L25.4122 27.6202L19.8748 24.5508C20.3531 23.3636 20.6169 22.0679 20.6169 20.7115C20.6169 19.6765 20.4628 18.6769 20.1777 17.7337L24.892 15.632L24.8944 15.6373C26.7011 18.6042 29.9075 20.6256 33.6915 20.6256C38.9986 20.6256 43.6167 16.5132 43.9723 11.0193C44.0176 10.3096 43.4791 9.69675 42.7693 9.65019C42.0496 9.6288 41.4456 10.1434 41.4002 10.8532C41.2988 12.4266 40.6894 13.8753 39.734 15.0798C39.1064 13.7914 37.7957 12.8942 36.2687 12.8942H31.1144C29.5926 12.8942 28.2863 13.7856 27.656 15.0669C26.591 13.7259 25.9602 12.0699 25.9602 10.3171C25.9602 6.26007 29.1212 2.87383 33.1567 2.60838C33.8676 2.56182 34.405 1.94778 34.3584 1.23804C34.3106 0.527102 33.6663 0.0187221 32.9881 0.0363324C27.6023 0.39249 23.3831 4.90743 23.3831 10.3171C23.3831 11.3354 23.5518 12.3282 23.84 13.2794L19.1283 15.38C17.3195 12.3989 14.0427 10.403 10.3085 10.403C4.62438 10.403 0 15.0274 0 20.7115C0 24.1682 1.71035 27.2328 4.32904 29.104C4.38325 29.1493 4.44184 29.1893 4.50309 29.2253C6.1576 30.357 8.15692 31.02 10.3085 31.02C12.46 31.02 14.4594 30.3571 16.1139 29.2253C16.1751 29.1897 16.2333 29.1491 16.2879 29.104C17.1821 28.4647 17.9692 27.6877 18.62 26.8019L24.1235 29.8525C23.6336 31.0701 23.3822 32.3706 23.3831 33.6831C23.3831 39.2576 27.938 43.9916 33.6915 43.9916C38.9986 43.9916 43.6167 39.8792 43.9723 34.3853C44.0176 33.6755 43.479 33.0626 42.7693 33.0161ZM16.377 25.4965C15.7552 24.1923 14.424 23.2886 12.8856 23.2886H7.73136C6.1929 23.2886 4.86173 24.1923 4.23996 25.4965C3.19915 24.1792 2.57712 22.5167 2.57712 20.7115C2.57712 16.4485 6.0454 12.9802 10.3085 12.9802C14.5715 12.9802 18.0398 16.4485 18.0398 20.7115C18.0398 22.5167 17.4178 24.1792 16.377 25.4965Z" fill="white"/>
<path d="M10.3085 23.2885C12.4435 23.2885 14.1742 21.5578 14.1742 19.4228C14.1742 17.2879 12.4435 15.5571 10.3085 15.5571C8.17359 15.5571 6.44287 17.2879 6.44287 19.4228C6.44287 21.5578 8.17359 23.2885 10.3085 23.2885Z" fill="white"/>
<path d="M33.6914 12.8942C35.8263 12.8942 37.557 11.1635 37.557 9.02852C37.557 6.89356 35.8263 5.16284 33.6914 5.16284C31.5564 5.16284 29.8257 6.89356 29.8257 9.02852C29.8257 11.1635 31.5564 12.8942 33.6914 12.8942Z" fill="white"/>
<path d="M33.6914 36.2599C35.8263 36.2599 37.557 34.5292 37.557 32.3942C37.557 30.2593 35.8263 28.5286 33.6914 28.5286C31.5564 28.5286 29.8257 30.2593 29.8257 32.3942C29.8257 34.5292 31.5564 36.2599 33.6914 36.2599Z" fill="white"/>
</g>
<defs>
<clipPath id="clip0_16_620">
<rect width="44" height="44" fill="white"/>
</clipPath>
</defs>
</svg>
