<svg width="24" height="24" viewBox="0 0 24 24" fill="none" xmlns="http://www.w3.org/2000/svg">
<path d="M1.97754 14.3817H11.1237V23.775H3.70789C2.75867 23.775 1.97754 22.9939 1.97754 22.0447V14.3817ZM21.7529 14.3817V22.0447C21.7529 22.9939 20.9718 23.775 20.0226 23.775H12.6068V14.3817H21.7529ZM0 8.69629V11.1682C0 12.1174 0.781128 12.8986 1.73035 12.8986H11.1237V6.96594H1.73035C0.781128 6.96594 0 7.74707 0 8.69629ZM22.0001 6.96594H12.6068V12.8986H22.0001C22.9493 12.8986 23.7305 12.1174 23.7305 11.1682V8.69629C23.7305 7.74707 22.9493 6.96594 22.0001 6.96594Z" fill="#9D9DAE"/>
<path d="M11.8654 7.99816C11.7589 7.99784 11.6537 7.97466 11.557 7.93018C11.4602 7.8857 11.3742 7.82096 11.3046 7.74033C11.235 7.65971 11.1836 7.56508 11.1538 7.46286C11.124 7.36064 11.1164 7.2532 11.1317 7.14782C11.4976 4.67589 13.4286 0 18.1233 0C20.8029 0.00098877 21.7531 1.44855 21.7531 2.68846C21.7531 4.89243 18.6849 7.99816 11.8654 7.99816ZM18.1233 1.48414C14.5815 1.48414 13.2368 4.8509 12.7909 6.49325C15.5851 6.36273 17.3471 5.65576 18.3616 5.0536C19.7686 4.21809 20.2699 3.2837 20.2699 2.68748C20.2699 1.79956 19.1615 1.48414 18.1233 1.48414Z" fill="#9D9DAE"/>
<path d="M11.8662 7.99814C5.04667 7.99814 1.97852 4.89242 1.97852 2.68845C1.97852 1.44854 2.92971 0.000976562 5.60928 0.000976562C10.303 0.000976562 12.234 4.67687 12.5999 7.14879C12.615 7.2541 12.6074 7.36143 12.5775 7.46353C12.5476 7.56564 12.4961 7.66014 12.4266 7.74065C12.357 7.82116 12.271 7.88581 12.1744 7.93023C12.0777 7.97465 11.9726 7.99781 11.8662 7.99814ZM5.60928 1.48413C4.57107 1.48413 3.46167 1.80054 3.46167 2.68845C3.46167 3.95111 5.66959 6.25198 10.9397 6.49423C10.4948 4.85089 9.15006 1.48413 5.60928 1.48413Z" fill="#9D9DAE"/>
</svg>
