<svg width="30" height="30" viewBox="0 0 30 30" fill="none" xmlns="http://www.w3.org/2000/svg">
<path d="M8.6345 8.29928C8.6345 4.78944 11.4904 1.93359 15.0002 1.93359C18.51 1.93359 21.3659 4.78944 21.3659 8.29928C21.3659 11.8091 18.51 14.665 15.0002 14.665C11.4904 14.665 8.6345 11.8091 8.6345 8.29928ZM19.0206 16.6752H10.9798C6.7315 16.6752 3.27393 20.1328 3.27393 24.381C3.27464 25.3582 3.66315 26.2952 4.35414 26.9862C5.04513 27.6772 5.98211 28.0657 6.95932 28.0664H23.0411C24.0183 28.0657 24.9552 27.6772 25.6462 26.9862C26.3372 26.2952 26.7257 25.3582 26.7264 24.381C26.7264 20.1328 23.2689 16.6752 19.0206 16.6752Z" fill="white"/>
</svg>
