<svg width="40" height="40" viewBox="0 0 40 40" fill="none" xmlns="http://www.w3.org/2000/svg">
<rect x="0.5" y="0.5" width="39" height="39" rx="9.5" fill="white" fill-opacity="0.1" stroke="#1FCFF1"/>
<g clip-path="url(#clip0_35_819)">
<path d="M21.9999 20.6667C21.6312 20.6667 21.3333 20.9654 21.3333 21.3333V24C21.3333 24.3673 21.0346 24.6667 20.6665 24.6667H18.6666V14.6668C18.6666 14.0974 18.3039 13.5888 17.7586 13.3994L17.5612 13.3334H20.6665C21.0346 13.3334 21.3333 13.6327 21.3333 14.0001V16.0001C21.3333 16.368 21.6312 16.6667 21.9999 16.6667C22.3686 16.6667 22.6665 16.368 22.6665 16.0001V14.0001C22.6665 12.8975 21.7692 12.0002 20.6665 12.0002H13.5C13.4746 12.0002 13.4534 12.0115 13.4287 12.0148C13.3966 12.0121 13.366 12.0001 13.3334 12.0001C12.598 12.0002 12 12.5981 12 13.3334V25.3333C12 25.9026 12.3627 26.4113 12.908 26.6006L16.92 27.938C17.056 27.98 17.1912 28 17.3333 28C18.0686 28 18.6665 27.402 18.6665 26.6666V26H20.6665C21.7692 26 22.6665 25.1027 22.6665 24V21.3333C22.6665 20.9654 22.3685 20.6667 21.9999 20.6667H21.9999Z" fill="#1FCFF1"/>
<path d="M27.805 18.1955L25.1383 15.5289C25.0451 15.4356 24.9263 15.372 24.7969 15.3462C24.6676 15.3205 24.5335 15.3336 24.4117 15.3841C24.1631 15.4875 24.0003 15.7308 24.0003 16.0002V18.0001H21.3337C20.9657 18.0001 20.667 18.2987 20.667 18.6668C20.667 19.0348 20.9657 19.3334 21.3337 19.3334H24.0003V21.3334C24.0003 21.6028 24.1631 21.846 24.4117 21.9494C24.5335 21.9999 24.6676 22.0131 24.7969 21.9873C24.9263 21.9615 25.045 21.898 25.1383 21.8048L27.805 19.1381C28.0656 18.8774 28.0656 18.4561 27.805 18.1955Z" fill="#1FCFF1"/>
</g>
<defs>
<clipPath id="clip0_35_819">
<rect width="16" height="16" fill="white" transform="translate(12 12)"/>
</clipPath>
</defs>
</svg>
