<svg width="25" height="25" viewBox="0 0 25 25" fill="none" xmlns="http://www.w3.org/2000/svg">
<g clip-path="url(#clip0_16_847)">
<path fill-rule="evenodd" clip-rule="evenodd" d="M22.5191 7.27491L16.1548 2.01306C15.1306 1.15428 13.8366 0.683594 12.5 0.683594C11.1634 0.683594 9.86942 1.15428 8.84518 2.01306L2.48087 7.27491C1.33468 8.22376 0.683594 9.66064 0.683594 11.1601V19.3666C0.683594 22.0312 2.73256 24.3165 5.41015 24.3165H7.77343C8.40021 24.3165 9.00132 24.0675 9.44452 23.6243C9.88772 23.1811 10.1367 22.58 10.1367 21.9532V18.1105C10.1367 16.6122 11.2616 15.5228 12.5 15.5228C13.7384 15.5228 14.8633 16.6122 14.8633 18.1105V21.9532C14.8633 22.58 15.1123 23.1811 15.5555 23.6243C15.9987 24.0675 16.5998 24.3165 17.2266 24.3165H19.5898C22.2674 24.3165 24.3164 22.0312 24.3164 19.3654V11.1601C24.3164 9.66064 23.6665 8.22376 22.5191 7.27491Z" fill="#9D9DAE"/>
</g>
<defs>
<clipPath id="clip0_16_847">
<rect width="25" height="25" fill="white"/>
</clipPath>
</defs>
</svg>
