<svg width="73" height="73" viewBox="0 0 73 73" fill="none" xmlns="http://www.w3.org/2000/svg">
<circle cx="36.5" cy="36.5" r="36.5" fill="url(#paint0_linear_35_982)"/>
<g clip-path="url(#clip0_35_982)">
<path d="M38.7756 31.7618L42.2395 35.2252L23.8096 53.6448C23.5829 53.8735 23.3132 54.055 23.016 54.1789C22.7188 54.3028 22.3999 54.3666 22.0779 54.3666C21.7559 54.3666 21.4371 54.3028 21.1399 54.1789C20.8427 54.055 20.5729 53.8735 20.3463 53.6448C19.8888 53.1865 19.6318 52.5655 19.6318 51.918C19.6318 51.2705 19.8888 50.6494 20.3463 50.1912L38.7756 31.7618ZM49.9309 26.5117C49.9314 26.191 49.8685 25.8733 49.7459 25.5769C49.6232 25.2805 49.4432 25.0113 49.2161 24.7847C48.8777 24.4454 48.4466 24.2137 47.977 24.1184C47.5074 24.0231 47.0201 24.0685 46.5761 24.249L49.7518 27.4246C49.8712 27.1272 49.9309 26.8195 49.9309 26.5117ZM25.1893 21.8375C25.1991 21.8375 25.2088 21.8375 25.2192 21.8473C26.1717 22.2044 27.1047 22.5518 28.0078 22.9491C29.8141 23.723 31.5412 24.5567 33.1483 25.5093C34.7565 26.4721 36.3044 27.4447 37.7335 28.5856C37.9419 28.7349 38.1504 28.8934 38.349 29.0426C38.4483 28.8342 38.5873 28.6453 38.7561 28.4765L43.0927 24.1399C42.5798 23.7692 42.0463 23.4278 41.4948 23.1173C39.5795 21.9466 37.4757 21.0928 35.3318 20.4877C33.1879 19.8722 30.955 19.6138 28.7319 19.6339C27.6301 19.654 26.5191 19.7533 25.4276 19.9319C25.4173 19.9416 25.3977 19.9416 25.3874 19.9416C24.3952 20.13 24.2563 21.5102 25.1893 21.8375ZM53.5137 38.6592C52.908 36.5256 52.0548 34.4213 50.8835 32.506C50.5778 31.9517 50.2364 31.418 49.8615 30.9081L45.5243 35.2447C45.356 35.4141 45.1671 35.553 44.9587 35.6621C45.1172 35.8602 45.2665 36.0588 45.4146 36.2673C46.5566 37.6866 47.5292 39.2448 48.4921 40.8525C49.4446 42.4601 50.2778 44.1872 51.0523 45.9935C51.449 46.8966 51.7964 47.8291 52.1541 48.7822C52.1638 48.792 52.1638 48.8017 52.1638 48.812C52.4911 49.7445 53.8708 49.6055 54.0592 48.6134C54.0592 48.6036 54.0592 48.5835 54.0695 48.5738C54.248 47.4817 54.3468 46.3702 54.3669 45.2586C54.387 43.0458 54.1286 40.8134 53.5137 38.6592ZM49.2134 28.2887L45.711 24.7879C45.1954 24.2723 44.3595 24.2723 43.8439 24.7879L39.4552 29.1761C38.9395 29.6917 38.9395 30.5281 39.4552 31.0438L42.9565 34.5456C43.4721 35.0613 44.308 35.0613 44.8241 34.5456L49.2129 30.1569C49.7285 29.6413 49.7285 28.8054 49.2129 28.2898L49.2134 28.2887Z" fill="white"/>
</g>
<defs>
<linearGradient id="paint0_linear_35_982" x1="36.5" y1="0" x2="36.5" y2="73" gradientUnits="userSpaceOnUse">
<stop stop-color="#1FCFF1"/>
<stop offset="1" stop-color="#2256B5"/>
</linearGradient>
<clipPath id="clip0_35_982">
<rect width="36" height="36" fill="white" transform="translate(19 19)"/>
</clipPath>
</defs>
</svg>
