<svg width="40" height="40" viewBox="0 0 40 40" fill="none" xmlns="http://www.w3.org/2000/svg">
<rect x="0.5" y="0.5" width="39" height="39" rx="9.5" fill="white" fill-opacity="0.1" stroke="#1FCFF1"/>
<path d="M18.667 28C19.8744 28 20.8844 27.1393 21.1164 26H16.2177C16.4498 27.1393 17.4598 28 18.667 28ZM23.3417 19.9994C23.339 19.9994 23.3364 20 23.3337 20C20.761 20 18.667 17.9066 18.667 15.3334C18.667 14.626 18.8298 13.9573 19.1131 13.356C18.9664 13.342 18.8177 13.3334 18.667 13.3334C16.0898 13.3334 14.0004 15.4226 14.0004 18V19.8587C14.0004 21.178 13.4224 22.4233 12.4084 23.2806C12.0704 23.5694 11.9204 24.0293 12.0417 24.478C12.183 25 12.699 25.3334 13.2404 25.3334H24.0904C24.6583 25.3334 25.1937 24.9653 25.309 24.4087C25.3984 23.978 25.245 23.548 24.911 23.2673C23.9416 22.4547 23.381 21.2606 23.3417 19.9994Z" fill="#1FCFF1"/>
<path d="M26.6666 15.3334C26.6666 17.1743 25.1743 18.6666 23.3333 18.6666C21.4923 18.6666 20 17.1743 20 15.3334C20 13.4924 21.4923 12 23.3333 12C25.1743 12 26.6666 13.4924 26.6666 15.3334Z" fill="#1FCFF1"/>
</svg>
