<svg width="22" height="24" viewBox="0 0 22 24" fill="none" xmlns="http://www.w3.org/2000/svg">
<path d="M11.0032 11.1622C14.1014 11.1622 16.6128 8.66338 16.6128 5.58112C16.6128 2.49885 14.1025 0 11.0032 0C7.9038 0 5.39355 2.49885 5.39355 5.58112C5.39355 8.66338 7.9038 11.1622 11.0032 11.1622Z" fill="#9D9DAE"/>
<path d="M7.47653 12.6765H14.5295C18.6212 12.6765 22.006 15.9015 22.006 20.1076C22.0028 20.5586 21.8846 21.0013 21.6625 21.3939C21.4403 21.7866 21.1216 22.1161 20.7365 22.3514C19.467 23.0522 16.6462 23.8932 11.003 23.8932C5.35983 23.8932 2.53894 23.0522 1.26947 22.3514C0.423615 21.931 0 21.0887 0 20.1076C0 16.0416 3.38617 12.6765 7.47653 12.6765Z" fill="#9D9DAE"/>
</svg>
