<svg width="40" height="40" viewBox="0 0 40 40" fill="none" xmlns="http://www.w3.org/2000/svg">
<rect x="0.5" y="0.5" width="39" height="39" rx="9.5" fill="white" fill-opacity="0.1" stroke="#1FCFF1"/>
<g clip-path="url(#clip0_35_843)">
<path d="M26.0268 14.2398C25.0392 14.1346 24.0673 13.9149 23.1305 13.585C22.2709 13.2812 21.4464 12.8861 20.6711 12.4064C20.4688 12.2837 20.2367 12.2188 20.0001 12.2188C19.7634 12.2188 19.5313 12.2837 19.329 12.4064L19.3283 12.4072C18.5531 12.8864 17.7288 13.2813 16.8696 13.585C15.9333 13.9148 14.9618 14.1345 13.9748 14.2398C13.6577 14.2721 13.3639 14.4209 13.1503 14.6574C12.9366 14.8939 12.8184 15.2013 12.8184 15.52V19.3465C12.8189 20.7586 13.1968 22.1448 13.913 23.3617C14.6291 24.5787 15.6575 25.5821 16.8917 26.2682L19.374 27.6478C19.5651 27.7553 19.7807 27.8118 20.0001 27.8118C20.2194 27.8118 20.435 27.7553 20.6261 27.6478L23.1084 26.2682C24.3426 25.5821 25.371 24.5787 26.0871 23.3617C26.8033 22.1448 27.1812 20.7586 27.1817 19.3465V15.5207C27.1821 15.202 27.0642 14.8944 26.8509 14.6576C26.6375 14.4209 26.3438 14.2724 26.0268 14.2398ZM22.9309 18.6608L20.1687 21.6071C20.0375 21.7471 19.8568 21.8303 19.6651 21.8389C19.4735 21.8476 19.286 21.7811 19.1427 21.6535L17.4854 20.1803C17.4094 20.1172 17.3469 20.0394 17.3016 19.9516C17.2563 19.8638 17.2292 19.7678 17.2217 19.6693C17.2143 19.5708 17.2268 19.4718 17.2584 19.3782C17.29 19.2847 17.3401 19.1984 17.4057 19.1246C17.4713 19.0507 17.5511 18.9908 17.6404 18.9485C17.7296 18.9061 17.8265 18.8822 17.9251 18.878C18.0238 18.8738 18.1224 18.8895 18.2149 18.9242C18.3073 18.9589 18.3919 19.0118 18.4635 19.0799L19.5854 20.0765L21.857 17.6531C21.9259 17.5798 22.0091 17.5213 22.1014 17.4813C22.1938 17.4413 22.2933 17.4205 22.3939 17.4204C22.5376 17.4203 22.6782 17.4622 22.7984 17.5411C22.9185 17.6199 23.013 17.7321 23.0701 17.864C23.1273 17.9958 23.1446 18.1415 23.12 18.2831C23.0954 18.4247 23.0292 18.5559 22.9309 18.6608Z" fill="#1FCFF1"/>
</g>
<defs>
<clipPath id="clip0_35_843">
<rect width="16" height="16" fill="white" transform="translate(12 12)"/>
</clipPath>
</defs>
</svg>
