<svg width="42" height="42" viewBox="0 0 42 42" fill="none" xmlns="http://www.w3.org/2000/svg">
<rect x="0.5" y="0.5" width="41" height="41" rx="9.5" stroke="#1FCFF1"/>
<g clip-path="url(#clip0_16_676)">
<path d="M30.0707 19.3483L27.8931 18.8128C27.762 18.3998 27.5939 17.9995 27.3907 17.6167C27.7177 17.0725 28.4048 15.927 28.4048 15.927C28.4686 15.8207 28.495 15.696 28.4799 15.5729C28.4647 15.4498 28.4088 15.3353 28.3211 15.2475L26.7481 13.6746C26.6606 13.5866 26.546 13.5306 26.4229 13.5154C26.2997 13.5003 26.175 13.5268 26.0687 13.5909L24.3762 14.605C23.9957 14.4036 23.5978 14.2369 23.1873 14.1069L22.6518 11.9293C22.6217 11.809 22.5524 11.7021 22.4546 11.6257C22.3569 11.5493 22.2364 11.5078 22.1124 11.5078H19.8876C19.6323 11.5078 19.4097 11.6816 19.3483 11.9293C19.3483 11.9293 18.9773 13.4492 18.8133 14.1064C18.3762 14.2447 17.9535 14.4247 17.551 14.6441L15.7961 13.5909C15.5767 13.4606 15.2975 13.4943 15.1166 13.6746L13.5437 15.2475C13.456 15.3353 13.4001 15.4498 13.3849 15.5729C13.3698 15.696 13.3962 15.8207 13.46 15.927L14.5452 17.7395C14.3705 18.0843 14.2239 18.4427 14.1069 18.8111L11.9293 19.3483C11.809 19.3783 11.7021 19.4477 11.6257 19.5454C11.5493 19.6431 11.5078 19.7636 11.5078 19.8876V22.1124C11.5078 22.3677 11.6816 22.5903 11.9293 22.6517L14.1074 23.1872C14.2394 23.606 14.4111 24.0128 14.6191 24.4034L13.648 26.0219C13.5841 26.1283 13.5577 26.2529 13.5729 26.3761C13.588 26.4992 13.6439 26.6137 13.7316 26.7014L15.3046 28.2744C15.4844 28.4541 15.7646 28.4883 15.984 28.358C15.984 28.358 17.0731 27.7052 17.6064 27.3858C17.9924 27.5915 18.3964 27.7615 18.8133 27.8936L19.3483 30.0707C19.4097 30.3184 19.6323 30.4922 19.8876 30.4922H22.1124C22.2364 30.4922 22.3569 30.4507 22.4546 30.3743C22.5523 30.2979 22.6217 30.1911 22.6517 30.0707L23.1867 27.8936C23.6138 27.7584 24.027 27.5829 24.4207 27.3695C24.9688 27.6981 26.0686 28.358 26.0686 28.358C26.2875 28.4889 26.5678 28.4552 26.7481 28.2744L28.3211 26.7014C28.4088 26.6137 28.4647 26.4992 28.4798 26.3761C28.495 26.2529 28.4685 26.1283 28.4047 26.0219L27.4048 24.3561C27.6019 23.9817 27.7653 23.5906 27.8931 23.1872L30.0707 22.6517C30.191 22.6217 30.2979 22.5523 30.3743 22.4546C30.4507 22.3569 30.4922 22.2364 30.4922 22.1124V19.8876C30.4922 19.7636 30.4507 19.6431 30.3743 19.5454C30.2979 19.4477 30.1911 19.3783 30.0707 19.3483ZM21 24.8933C18.8535 24.8933 17.1067 23.1465 17.1067 21C17.1067 18.8535 18.8535 17.1067 21 17.1067C23.1465 17.1067 24.8933 18.8535 24.8933 21C24.8933 23.1465 23.1465 24.8933 21 24.8933Z" fill="#1FCFF1"/>
</g>
<defs>
<clipPath id="clip0_16_676">
<rect width="20" height="20" fill="white" transform="translate(11 11)"/>
</clipPath>
</defs>
</svg>
