<svg width="40" height="40" viewBox="0 0 40 40" fill="none" xmlns="http://www.w3.org/2000/svg">
<rect x="0.5" y="0.5" width="39" height="39" rx="9.5" fill="white" fill-opacity="0.1" stroke="#1FCFF1"/>
<g clip-path="url(#clip0_35_920)">
<path d="M24 20C22.8002 20 21.7266 20.5306 20.9936 21.3672L18.4546 19.8046C18.5846 19.4478 18.6668 19.0682 18.6668 18.6666C18.6668 18.4042 18.6292 18.1518 18.5718 17.9062L21.9468 16.3488C22.4356 16.9452 23.1686 17.3332 24.0002 17.3332C25.4722 17.3332 26.6668 16.1392 26.6668 14.6666C26.6668 13.194 25.472 12 24 12C22.5268 12 21.3334 13.194 21.3334 14.6666C21.3334 14.8292 21.3536 14.9862 21.3808 15.1412L18.0098 16.6972C17.4024 15.8736 16.4342 15.3332 15.3334 15.3332C13.4922 15.3334 12 16.8254 12 18.6666C12 20.5078 13.4922 22 15.3334 22C16.2916 22 17.1498 21.5898 17.7578 20.9414L20.293 22.5014C20.1054 22.9648 20 23.4694 20 24C20 26.2096 21.7904 28 24 28C26.2084 28 28 26.2096 28 24C28 21.7904 26.2084 20 24 20Z" fill="#1FCFF1"/>
</g>
<defs>
<clipPath id="clip0_35_920">
<rect width="16" height="16" fill="white" transform="translate(12 12)"/>
</clipPath>
</defs>
</svg>
