<svg width="40" height="40" viewBox="0 0 40 40" fill="none" xmlns="http://www.w3.org/2000/svg">
<rect x="0.5" y="0.5" width="39" height="39" rx="9.5" fill="white" fill-opacity="0.1" stroke="#1FCFF1"/>
<g clip-path="url(#clip0_35_831)">
<path d="M20.755 24.815C20.755 23.7306 21.1772 22.7109 21.9441 21.9441C22.7109 21.1772 23.7303 20.755 24.815 20.755C25.7053 20.755 26.5519 21.04 27.2509 21.5662C27.2897 21 27.3138 20.3666 27.3147 19.6575C27.3128 17.8741 27.1631 16.5681 27.0034 15.6084C26.7241 14.0272 25.2878 12.5909 23.7066 12.3116C22.7469 12.1516 21.4409 12.0019 19.6572 12C17.8737 12.0019 16.5675 12.1516 15.6078 12.3113C14.0269 12.5906 12.5906 14.0269 12.3113 15.6081C12.1516 16.5678 12.0022 17.8737 12 19.6572C12.0022 21.4406 12.1516 22.7469 12.3113 23.7066C12.5906 25.2878 14.0269 26.7241 15.6081 27.0034C16.5678 27.1631 17.8737 27.3125 19.6575 27.3147C20.3666 27.3138 21 27.2897 21.5662 27.2509C21.04 26.5519 20.755 25.7056 20.755 24.815ZM15.8737 15.7006H23.4409C23.9303 15.7006 24.3272 16.0975 24.3272 16.5869C24.3272 17.0763 23.9303 17.4731 23.4409 17.4731H15.8737C15.3844 17.4731 14.9875 17.0763 14.9875 16.5869C14.9875 16.0975 15.3844 15.7006 15.8737 15.7006ZM15.8737 21.1741C15.3844 21.1741 14.9875 20.7772 14.9875 20.2878C14.9875 19.7984 15.3844 19.4016 15.8737 19.4016H20.3159C20.8053 19.4016 21.2022 19.7984 21.2022 20.2878C21.2022 20.7772 20.8053 21.1741 20.3159 21.1741H15.8737Z" fill="#1FCFF1"/>
<path d="M24.8149 21.63C23.0558 21.63 21.6299 23.0559 21.6299 24.815C21.6299 26.5741 23.0558 28 24.8149 28C26.5739 28 27.9999 26.5741 27.9999 24.815C27.9999 23.0559 26.5739 21.63 24.8149 21.63ZM25.4086 26.3953C25.4086 26.7231 25.1427 26.9891 24.8149 26.9891C24.4871 26.9891 24.2211 26.7231 24.2211 26.3953V24.8288C24.2211 24.5009 24.4871 24.235 24.8149 24.235C25.1427 24.235 25.4086 24.5009 25.4086 24.8288V26.3953ZM25.3843 23.5578C25.3624 23.6816 25.2499 23.7941 25.1261 23.8159C25.0511 23.8284 24.9486 23.84 24.8089 23.8403C24.6693 23.8403 24.5671 23.8284 24.4918 23.8159C24.368 23.7941 24.2555 23.6816 24.2336 23.5578C24.2211 23.4828 24.2096 23.3803 24.2093 23.2406C24.2093 23.1009 24.2211 22.9988 24.2336 22.9234C24.2555 22.7997 24.368 22.6872 24.4918 22.6653C24.5668 22.6528 24.6693 22.6413 24.8089 22.6409C24.9486 22.6409 25.0508 22.6528 25.1261 22.6653C25.2499 22.6872 25.3624 22.7997 25.3843 22.9234C25.3968 22.9984 25.4083 23.1009 25.4086 23.2406C25.4086 23.3803 25.3968 23.4825 25.3843 23.5578Z" fill="#1FCFF1"/>
</g>
<defs>
<clipPath id="clip0_35_831">
<rect width="16" height="16" fill="white" transform="translate(12 12)"/>
</clipPath>
</defs>
</svg>
