<svg width="24" height="22" viewBox="0 0 24 22" fill="none" xmlns="http://www.w3.org/2000/svg">
<path d="M20.1986 4.7526H19.0104V3.56445C19.0104 1.5446 17.4658 0 15.446 0H3.56445C1.5446 0 0 1.5446 0 3.56445V17.8223C0 19.8421 1.5446 21.3867 3.56445 21.3867H20.1986C22.2184 21.3867 23.763 19.8421 23.763 17.8223V8.31706C23.763 6.2972 22.2184 4.7526 20.1986 4.7526ZM16.6341 4.7526H3.56445C2.85156 4.7526 2.3763 4.27734 2.3763 3.56445C2.3763 2.85156 2.85156 2.3763 3.56445 2.3763H15.446C16.1589 2.3763 16.6341 2.85156 16.6341 3.56445V4.7526ZM21.3867 15.446H20.1986C18.8916 15.446 17.8223 14.3766 17.8223 13.0697C17.8223 11.7627 18.8916 10.6934 20.1986 10.6934H21.3867V15.446Z" fill="#9D9DAE"/>
</svg>
