<svg width="245" height="245" viewBox="0 0 245 245" fill="none" xmlns="http://www.w3.org/2000/svg">
<g filter="url(#filter0_d_7_88)">
<rect x="50" y="46" width="145" height="145" rx="30" fill="white" fill-opacity="0.1" shape-rendering="crispEdges"/>
<rect x="50.5" y="46.5" width="144" height="144" rx="29.5" stroke="#862BED" shape-rendering="crispEdges"/>
</g>
<path d="M123.215 129.149L160.793 109.689V83.7196C160.793 80.6812 158.331 78.2188 155.292 78.2188H90.7079C87.6695 78.2188 85.207 80.6812 85.207 83.7196V109.689L122.785 129.149H123.215ZM112.742 113.226L114.218 104.63L107.973 98.5441C107.739 98.3164 107.573 98.0277 107.495 97.7107C107.416 97.3937 107.428 97.061 107.529 96.7503C107.63 96.4397 107.815 96.1634 108.065 95.9528C108.314 95.7422 108.618 95.6057 108.941 95.5587L117.571 94.3041L121.431 86.484C121.575 86.1912 121.799 85.9447 122.076 85.7723C122.354 85.5999 122.674 85.5085 123 85.5085C123.327 85.5085 123.646 85.5999 123.924 85.7723C124.201 85.9447 124.425 86.1912 124.569 86.484L128.429 94.3041L137.059 95.5587C137.382 95.6057 137.686 95.7422 137.935 95.9528C138.185 96.1634 138.37 96.4397 138.471 96.7503C138.572 97.061 138.584 97.3937 138.505 97.7107C138.427 98.0277 138.261 98.3164 138.027 98.5441L131.782 104.63L133.258 113.226C133.314 113.547 133.278 113.878 133.155 114.181C133.033 114.484 132.828 114.746 132.563 114.938C132.299 115.13 131.986 115.244 131.661 115.267C131.335 115.29 131.009 115.221 130.72 115.068L123 111.012L115.28 115.072C114.99 115.223 114.665 115.291 114.339 115.267C114.014 115.244 113.701 115.129 113.437 114.937C113.173 114.745 112.968 114.483 112.845 114.18C112.723 113.878 112.687 113.547 112.742 113.226Z" fill="url(#paint0_linear_7_88)"/>
<path d="M162.038 112.024L134.655 126.204L154.442 143.345C155.002 143.843 155.034 144.683 154.567 145.213C154.318 145.524 153.944 145.68 153.57 145.68C153.259 145.68 152.948 145.586 152.699 145.368L132.134 127.508L124.432 131.496C123.989 131.725 123.498 131.844 123 131.844C122.502 131.844 122.011 131.725 121.568 131.496L113.866 127.508L93.3009 145.368C93.058 145.575 92.748 145.686 92.4292 145.68C92.0557 145.68 91.6821 145.524 91.4331 145.213C91.2033 144.948 91.0874 144.603 91.1108 144.253C91.1341 143.903 91.2947 143.577 91.5576 143.345L111.323 126.192L83.9585 112.021C83.4838 111.776 82.954 111.657 82.4201 111.675C81.8861 111.694 81.366 111.85 80.9097 112.128C80.4535 112.406 80.0765 112.797 79.8149 113.263C79.5534 113.729 79.4162 114.254 79.4165 114.788V150.436C79.4165 152.913 80.4005 155.289 82.1519 157.04C83.9034 158.792 86.2789 159.776 88.7558 159.776H157.244C159.721 159.776 162.096 158.792 163.848 157.04C165.599 155.289 166.583 152.913 166.583 150.436V114.788C166.583 114.254 166.446 113.728 166.184 113.263C165.922 112.797 165.544 112.406 165.088 112.128C164.631 111.851 164.111 111.695 163.577 111.677C163.042 111.659 162.513 111.778 162.038 112.024Z" fill="url(#paint1_linear_7_88)"/>
<defs>
<filter id="filter0_d_7_88" x="0" y="0" width="245" height="245" filterUnits="userSpaceOnUse" color-interpolation-filters="sRGB">
<feFlood flood-opacity="0" result="BackgroundImageFix"/>
<feColorMatrix in="SourceAlpha" type="matrix" values="0 0 0 0 0 0 0 0 0 0 0 0 0 0 0 0 0 0 127 0" result="hardAlpha"/>
<feOffset dy="4"/>
<feGaussianBlur stdDeviation="25"/>
<feComposite in2="hardAlpha" operator="out"/>
<feColorMatrix type="matrix" values="0 0 0 0 0.52549 0 0 0 0 0.168627 0 0 0 0 0.929412 0 0 0 0.15 0"/>
<feBlend mode="normal" in2="BackgroundImageFix" result="effect1_dropShadow_7_88"/>
<feBlend mode="normal" in="SourceGraphic" in2="effect1_dropShadow_7_88" result="shape"/>
</filter>
<linearGradient id="paint0_linear_7_88" x1="123" y1="78.2188" x2="123" y2="129.149" gradientUnits="userSpaceOnUse">
<stop stop-color="#A04DFF"/>
<stop offset="1" stop-color="#6715C4"/>
</linearGradient>
<linearGradient id="paint1_linear_7_88" x1="123" y1="111.673" x2="123" y2="159.776" gradientUnits="userSpaceOnUse">
<stop stop-color="#A04DFF"/>
<stop offset="1" stop-color="#6715C4"/>
</linearGradient>
</defs>
</svg>
