<svg width="18" height="18" viewBox="0 0 18 18" fill="none" xmlns="http://www.w3.org/2000/svg">
<path d="M17.4307 0.238923C17.4151 0.168518 17.3603 0.113759 17.2938 0.0942016C15.0017 -0.465125 9.70964 1.52968 6.8426 4.39672C6.33021 4.9052 5.86476 5.4567 5.45015 6.04341C4.56618 5.96518 3.68221 6.03167 2.92731 6.36023C0.799524 7.29505 0.181526 9.73966 0.00551441 10.7879C-0.029688 10.9913 0.10721 11.1869 0.314513 11.2221C0.349716 11.226 0.384918 11.2299 0.42012 11.226L3.83475 10.8505C3.83866 11.1086 3.85431 11.3668 3.88169 11.621C3.89733 11.797 3.97947 11.9652 4.10464 12.0904L5.42668 13.4085C5.55185 13.5337 5.72004 13.6158 5.89605 13.6315C6.15029 13.6589 6.40453 13.6745 6.66268 13.6784L6.28719 17.0891C6.26372 17.2964 6.41626 17.4842 6.62356 17.5037C6.65877 17.5077 6.69397 17.5077 6.72526 17.4998C7.77351 17.3316 10.222 16.7136 11.1529 14.5859C11.4815 13.831 11.548 12.9509 11.4737 12.0708C12.0643 11.6562 12.6158 11.1869 13.1243 10.6784C15.9991 7.81917 17.9822 2.64442 17.4307 0.238923ZM12.9052 7.26376C12.1738 7.99518 10.9848 7.99909 10.2533 7.26376C9.51798 6.53233 9.51798 5.34327 10.2533 4.60793C10.9848 3.87259 12.1738 3.87259 12.9091 4.60793C13.6406 5.34327 13.6406 6.53233 12.9052 7.26376Z" fill="#1FCFF1"/>
<path d="M5.33674 14.3629C5.12161 14.578 4.77741 14.6601 4.36281 14.7344C3.4319 14.8909 2.61051 14.0891 2.7787 13.1503C2.84128 12.7944 3.03294 12.2937 3.15028 12.1764C3.21677 12.1099 3.22068 12.0004 3.15419 11.9339C3.11508 11.8948 3.06423 11.8752 3.00947 11.883C2.48926 11.9456 2.00425 12.1842 1.63658 12.5519C0.713492 13.475 0.627441 16.8896 0.627441 16.8896C0.627441 16.8896 4.04598 16.8036 4.96516 15.8805C5.33674 15.5089 5.57142 15.0278 5.634 14.5037C5.64965 14.3433 5.45017 14.2455 5.33674 14.3629Z" fill="#1FCFF1"/>
</svg>
