<svg width="245" height="245" viewBox="0 0 245 245" fill="none" xmlns="http://www.w3.org/2000/svg">
<g filter="url(#filter0_d_7_85)">
<rect x="50" y="46" width="145" height="145" rx="30" fill="white" fill-opacity="0.1" shape-rendering="crispEdges"/>
<rect x="50.5" y="46.5" width="144" height="144" rx="29.5" stroke="#F087FF" shape-rendering="crispEdges"/>
</g>
<path d="M127.44 105.905L136.099 114.563L90.0245 160.612C89.4578 161.184 88.7835 161.638 88.0404 161.947C87.2974 162.257 86.5004 162.416 85.6953 162.416C84.8903 162.416 84.0933 162.257 83.3502 161.947C82.6072 161.638 81.9328 161.184 81.3662 160.612C80.2224 159.466 79.5801 157.914 79.5801 156.295C79.5801 154.676 80.2224 153.124 81.3662 151.978L127.44 105.905ZM155.328 92.7793C155.329 91.9774 155.172 91.1831 154.865 90.4422C154.558 89.7012 154.108 89.0282 153.541 88.4617C152.695 87.6136 151.617 87.0342 150.443 86.7959C149.269 86.5577 148.051 86.6713 146.941 87.1224L154.88 95.0616C155.179 94.318 155.328 93.5487 155.328 92.7793ZM93.4737 81.0937C93.4982 81.0937 93.5226 81.0937 93.5484 81.1182C95.9297 82.011 98.2622 82.8794 100.52 83.8727C105.036 85.8076 109.353 87.8918 113.371 90.2731C117.392 92.6803 121.262 95.1118 124.834 97.964C125.355 98.3372 125.876 98.7334 126.373 99.1065C126.621 98.5855 126.969 98.1133 127.391 97.6913L138.232 86.8497C136.95 85.9229 135.616 85.0694 134.238 84.2933C129.449 81.3665 124.19 79.2321 118.83 77.7191C113.47 76.1804 107.888 75.5345 102.33 75.5847C99.5757 75.6349 96.7981 75.8833 94.0694 76.3297C94.0436 76.3541 93.9948 76.3541 93.969 76.3541C91.4886 76.8249 91.1412 80.2755 93.4737 81.0937ZM164.285 123.148C162.77 117.814 160.637 112.553 157.709 107.765C156.945 106.379 156.092 105.045 155.154 103.77L144.311 114.612C143.891 115.035 143.418 115.382 142.897 115.655C143.294 116.15 143.667 116.647 144.037 117.168C146.892 120.716 149.324 124.612 151.731 128.631C154.112 132.65 156.195 136.968 158.131 141.484C159.123 143.742 159.991 146.073 160.886 148.455C160.91 148.48 160.91 148.504 160.91 148.53C161.728 150.861 165.178 150.514 165.648 148.033C165.648 148.009 165.648 147.959 165.674 147.934C166.121 145.204 166.368 142.425 166.418 139.646C166.468 134.114 165.822 128.534 164.285 123.148ZM153.534 97.2218L144.778 88.4698C143.489 87.1808 141.399 87.1808 140.11 88.4698L129.138 99.4403C127.849 100.729 127.849 102.82 129.138 104.109L137.892 112.864C139.181 114.153 141.27 114.153 142.561 112.864L153.533 101.892C154.822 100.603 154.822 98.5136 153.533 97.2245L153.534 97.2218Z" fill="url(#paint0_linear_7_85)"/>
<defs>
<filter id="filter0_d_7_85" x="0" y="0" width="245" height="245" filterUnits="userSpaceOnUse" color-interpolation-filters="sRGB">
<feFlood flood-opacity="0" result="BackgroundImageFix"/>
<feColorMatrix in="SourceAlpha" type="matrix" values="0 0 0 0 0 0 0 0 0 0 0 0 0 0 0 0 0 0 127 0" result="hardAlpha"/>
<feOffset dy="4"/>
<feGaussianBlur stdDeviation="25"/>
<feComposite in2="hardAlpha" operator="out"/>
<feColorMatrix type="matrix" values="0 0 0 0 0.941176 0 0 0 0 0.529412 0 0 0 0 1 0 0 0 0.15 0"/>
<feBlend mode="normal" in2="BackgroundImageFix" result="effect1_dropShadow_7_85"/>
<feBlend mode="normal" in="SourceGraphic" in2="effect1_dropShadow_7_85" result="shape"/>
</filter>
<linearGradient id="paint0_linear_7_85" x1="150" y1="89.5" x2="84" y2="160" gradientUnits="userSpaceOnUse">
<stop stop-color="#F087FF"/>
<stop offset="1" stop-color="#8733D7"/>
</linearGradient>
</defs>
</svg>
