<svg width="18" height="18" viewBox="0 0 18 18" fill="none" xmlns="http://www.w3.org/2000/svg">
<path d="M9.57189 6.06451L11.3038 7.79618L2.08889 17.006C1.97555 17.1203 1.84068 17.2111 1.69207 17.273C1.54346 17.335 1.38405 17.3669 1.22305 17.3669C1.06205 17.3669 0.902639 17.335 0.754029 17.273C0.605419 17.2111 0.470552 17.1203 0.357216 17.006C0.128474 16.7769 0 16.4663 0 16.1426C0 15.8188 0.128474 15.5083 0.357216 15.2792L9.57189 6.06451ZM15.1496 3.43946C15.1498 3.27907 15.1183 3.12022 15.057 2.97203C14.9957 2.82384 14.9057 2.68923 14.7921 2.57593C14.6229 2.40632 14.4074 2.29043 14.1726 2.24278C13.9378 2.19513 13.6941 2.21785 13.4722 2.30808L15.06 3.89592C15.1197 3.7472 15.1496 3.59333 15.1496 3.43946ZM2.77873 1.10234C2.78362 1.10234 2.7885 1.10234 2.79366 1.10723C3.26993 1.28579 3.73643 1.45948 4.188 1.65813C5.09115 2.04511 5.95468 2.46195 6.75824 2.93822C7.56233 3.41965 8.33631 3.90596 9.05085 4.4764C9.15506 4.55103 9.25927 4.63027 9.35859 4.7049C9.40825 4.60069 9.47773 4.50625 9.56213 4.42185L11.7304 2.25353C11.474 2.06817 11.2072 1.89748 10.9315 1.74225C9.97381 1.15689 8.92194 0.730008 7.84999 0.427421C6.77805 0.119677 5.66159 -0.0094997 4.55002 0.000541324C3.99912 0.0105824 3.44361 0.0602447 2.89787 0.149528C2.89271 0.154413 2.88294 0.154413 2.87779 0.154413C2.3817 0.248582 2.31223 0.938699 2.77873 1.10234ZM16.9409 9.51319C16.6381 8.4464 16.2115 7.39427 15.6258 6.43657C15.473 6.15945 15.3023 5.89258 15.1148 5.63763L12.9462 7.80595C12.8621 7.89062 12.7677 7.96009 12.6634 8.01464C12.7427 8.11369 12.8173 8.21302 12.8914 8.31723C13.4624 9.02688 13.9487 9.80601 14.4301 10.6098C14.9064 11.4137 15.323 12.2772 15.7102 13.1803C15.9086 13.6319 16.0823 14.0981 16.2611 14.5747C16.266 14.5796 16.266 14.5845 16.266 14.5896C16.4296 15.0558 17.1195 14.9864 17.2137 14.4903C17.2137 14.4854 17.2137 14.4754 17.2188 14.4705C17.3081 13.9245 17.3575 13.3687 17.3675 12.8129C17.3776 11.7065 17.2484 10.5903 16.9409 9.51319ZM14.7908 4.32795L13.0396 2.57756C12.7818 2.31975 12.3638 2.31975 12.106 2.57756L9.91166 4.77166C9.65385 5.02947 9.65385 5.44766 9.91166 5.70547L11.6623 7.45641C11.9201 7.71422 12.3381 7.71422 12.5961 7.45641L14.7905 5.26204C15.0483 5.00423 15.0483 4.58631 14.7905 4.3285L14.7908 4.32795Z" fill="#F087FF"/>
</svg>
