<svg width="18" height="18" viewBox="0 0 18 18" fill="none" xmlns="http://www.w3.org/2000/svg">
<path d="M7.11802 2.64781C7.11802 1.70884 7.88193 0.944929 8.8209 0.944929H9.41023L9.23245 0.450753C9.13249 0.172842 8.87059 0 8.59145 0C8.51411 0 8.43544 0.0132825 8.35853 0.0412778L2.40346 2.20874C2.04943 2.33761 1.86722 2.72938 1.99684 3.08313L2.3115 3.942H7.11802V2.64781Z" fill="#19FB9B"/>
<path d="M8.82092 1.96667C8.44472 1.96667 8.13977 2.27163 8.13977 2.64783V3.94202H14.0999V2.64783C14.0999 2.27163 13.7949 1.96667 13.4187 1.96667H8.82092ZM15.9049 13.7676H13.5209C12.1124 13.7676 10.9666 12.6218 10.9666 11.2133C10.9666 9.80487 12.1124 8.659 13.5209 8.659H15.9049V6.32605C15.9049 5.57368 15.295 4.96375 14.5426 4.96375H1.3623C0.609938 4.96375 0 5.57368 0 6.32605V16.0752C0 16.8276 0.609938 17.4375 1.3623 17.4375H14.5426C15.295 17.4375 15.9049 16.8276 15.9049 16.0752V13.7676Z" fill="#19FB9B"/>
<path d="M16.9266 9.68066H13.5209C12.6758 9.68066 11.9883 10.3682 11.9883 11.2133C11.9883 12.0583 12.6758 12.7458 13.5209 12.7458H16.9266C17.2083 12.7458 17.4375 12.5167 17.4375 12.235V10.1915C17.4375 9.90984 17.2083 9.68066 16.9266 9.68066ZM13.5209 11.7241C13.2387 11.7241 13.01 11.4954 13.01 11.2133C13.01 10.9311 13.2387 10.7024 13.5209 10.7024C13.803 10.7024 14.0317 10.9311 14.0317 11.2133C14.0317 11.4954 13.803 11.7241 13.5209 11.7241Z" fill="#19FB9B"/>
</svg>
